<svg xmlns="http://www.w3.org/2000/svg" viewBox="0 0 31 32">

  <path
    d="M26.955 5.226c-0.1-0.335-0.261-0.625-0.471-0.871l0.003 0.003c-0.21-0.246-0.467-0.446-0.759-0.584l-0.014-0.006c-0.293-0.142-0.613-0.213-0.937-0.21h-18.216c-0.031-0.002-0.068-0.003-0.105-0.003-0.304 0-0.59 0.074-0.842 0.205l0.010-0.005c-0.301 0.139-0.57 0.345-0.785 0.604-0.207 0.243-0.368 0.532-0.464 0.849l-0.004 0.017c-0.097 0.317-0.128 0.654-0.088 0.984l2.076 18.377c0.143 1.294 0.742 2.427 1.63 3.253l0.003 0.003c0.846 0.805 1.991 1.303 3.251 1.313h8.862c1.267-0.009 2.416-0.507 3.268-1.315l-0.002 0.002c0.878-0.836 1.47-1.965 1.618-3.231l0.002-0.025 1.126-10.33v-0.158l0.873-7.876c0.049-0.332 0.036-0.671-0.038-0.998zM14.17 25.375h-1.266c-0.861-0.053-1.63-0.403-2.217-0.948l0.002 0.002c-0.599-0.564-1.011-1.321-1.137-2.171l-0.002-0.020-0.304-2.258c-0.006-0.047-0.009-0.101-0.009-0.156 0-0.305 0.1-0.586 0.269-0.812l-0.003 0.004c0.204-0.274 0.504-0.455 0.835-0.503 0.053-0.008 0.114-0.013 0.176-0.013 0.287 0 0.552 0.097 0.762 0.261l-0.003-0.002c0.27 0.206 0.45 0.512 0.503 0.854l0.304 2.231c0.034 0.244 0.151 0.467 0.329 0.63 0.177 0.169 0.405 0.266 0.646 0.276h1.266c0.336 0 0.658 0.138 0.895 0.384s0.37 0.58 0.37 0.929-0.133 0.682-0.37 0.928c-0.226 0.236-0.543 0.383-0.895 0.384h-0.152zM24.297 13.259c-2.671 0.538-4.949 0.643-7.367-1.313-3-2.455-6.633-1.668-10.126-0.38l-0.633-5.566c-0.006-0.026-0.009-0.055-0.009-0.085s0.003-0.060 0.010-0.088l-0 0.003c0.018-0.057 0.048-0.105 0.088-0.144l0-0c0.030-0.048 0.073-0.084 0.125-0.105l0.002-0.001c0.050-0.014 0.102-0.014 0.151 0h18.381c0.049 0.029 0.091 0.064 0.126 0.105l0.001 0.001c0.036 0.039 0.063 0.088 0.075 0.142l0 0.002c0.009 0.027 0.014 0.059 0.014 0.092s-0.005 0.064-0.015 0.094l0.001-0.002-0.823 7.246z">
  </path>

</svg>